STARTFONT 2.1
COMMENT +
COMMENT  Copyright 1986, 1985 Bigelow & Holmes. 
COMMENT  Copyright 1996 BIZNET Poland, Inc.
COMMENT -
FONT -BIZNET-FotinosBright-DemiBold-I-Normal--34-240-100-100-P-203-ISO8859-2
SIZE 24 100 100
FONTBOUNDINGBOX 34 34 -2 -7
STARTPROPERTIES 21
FOUNDRY "BIZNET"
FAMILY_NAME "BIZNET FotinosBright"
WEIGHT_NAME "DemiBold"
SLANT "I"
SETWIDTH_NAME "Normal"
ADD_STYLE_NAME ""
PIXEL_SIZE 34
POINT_SIZE 240
RESOLUTION_X 100
RESOLUTION_Y 100
SPACING "P"
AVERAGE_WIDTH 203
CHARSET_REGISTRY "ISO8859"
CHARSET_ENCODING "2"
FONT_ASCENT 31
FONT_DESCENT 8
FACE_NAME "BIZNET Fotinos Bright Demibold Italic"
DEFAULT_CHAR 0
CHARSET_COLLECTIONS "ASCII ISO8859-2"
COPYRIGHT "Copyright Bigelow & Holmes 1986, 1985. Copyright (c) 1996 BIZNET Poland, Inc. All Rights Reserved."
NOTICE "The name "BIZNET" is a registered trademark of BIZNET Poland, Inc."
ENDPROPERTIES
CHARS 190
STARTCHAR space
ENCODING 32
SWIDTH 333 0
DWIDTH 11 0
BBX 1 1 0 0
BITMAP
00
ENDCHAR
STARTCHAR exclam
ENCODING 33
SWIDTH 265 0
DWIDTH 9 0
BBX 10 25 2 0
BITMAP
07C0
07C0
0F80
0F80
0F80
0F80
0F80
0F00
0F00
0F00
1E00
1E00
1E00
1E00
1C00
1C00
1C00
1800
0000
0000
0000
7C00
7C00
F800
F800
ENDCHAR
STARTCHAR quotedbl
ENCODING 34
SWIDTH 451 0
DWIDTH 15 0
BBX 12 10 6 16
BITMAP
F9F0
F8F0
F8F0
70F0
70F0
70E0
70E0
7060
7060
2060
ENDCHAR
STARTCHAR numbersign
ENCODING 35
SWIDTH 636 0
DWIDTH 22 0
BBX 21 25 3 0
BITMAP
000C38
001830
001870
003060
0030E0
0060C0
0061C0
3FFFF8
3FFFF8
01C300
018700
038600
030E00
070C00
060C00
FFFFE0
FFFFE0
0C3000
183000
186000
306000
30E000
70C000
60C000
E18000
ENDCHAR
STARTCHAR dollar
ENCODING 36
SWIDTH 636 0
DWIDTH 22 0
BBX 19 32 4 -4
BITMAP
000C00
000C00
001800
00FFC0
03FFE0
07D9E0
0798E0
0F10C0
0F10C0
0F3000
0F3000
0FB000
07E000
07E000
03F000
00F800
007E00
00FF00
00DF00
00CF00
008F00
018F00
618F00
619F00
619E00
F97C00
FFF800
7FE000
030000
030000
030000
020000
ENDCHAR
STARTCHAR percent
ENCODING 37
SWIDTH 772 0
DWIDTH 26 0
BBX 26 25 2 0
BITMAP
07C001C0
1FF00380
3C700700
38780E00
78781C00
78783800
70787000
7070F000
70F1E000
79E3C000
3FC78000
1F0F0000
000E3E00
001C7F80
0038F380
0071E3C0
00E3C3C0
01C3C3C0
0383C3C0
070383C0
0F038380
1E038780
3C03CF00
7801FE00
F000F800
ENDCHAR
STARTCHAR ampersand
ENCODING 38
SWIDTH 773 0
DWIDTH 26 0
BBX 26 25 2 0
BITMAP
000F8000
003FE000
00F8F000
00F0F000
01F0F000
01E0F000
01E0F000
01F1E000
01F3C000
00FF0000
01FC0000
07F83FC0
1E783FC0
3C7C0F00
783C0E00
783E0E00
F81F1C00
F81F1800
F80FB800
F80FF000
F807E000
7C07E000
7E07F000
1FFDFE00
07E1FE00
ENDCHAR
STARTCHAR quoteright
ENCODING 39
SWIDTH 265 0
DWIDTH 9 0
BBX 8 11 5 15
BITMAP
3F
3F
3E
3E
7E
1E
1C
1C
38
F0
C0
ENDCHAR
STARTCHAR parenleft
ENCODING 40
SWIDTH 336 0
DWIDTH 11 0
BBX 12 32 3 -6
BITMAP
0010
0030
0060
01C0
0380
0380
0700
0F00
1E00
1E00
3C00
3C00
7C00
7C00
7800
F800
F800
F800
F800
F800
F800
F800
F800
F800
7800
7800
7800
3800
3800
1C00
0C00
0400
ENDCHAR
STARTCHAR parenright
ENCODING 41
SWIDTH 336 0
DWIDTH 11 0
BBX 12 32 0 -6
BITMAP
0200
0300
0180
01C0
01C0
00E0
00E0
00F0
00F0
00F0
00F0
00F0
00F0
00F0
01F0
01F0
01F0
01F0
01E0
03E0
03E0
03C0
03C0
0780
0700
0F00
0E00
1C00
3800
7000
C000
8000
ENDCHAR
STARTCHAR asterisk
ENCODING 42
SWIDTH 434 0
DWIDTH 15 0
BBX 13 12 5 13
BITMAP
0380
0380
0300
6318
7B78
FCF8
0000
0B00
3D80
79C0
71E0
2100
ENDCHAR
STARTCHAR plus
ENCODING 43
SWIDTH 636 0
DWIDTH 21 0
BBX 20 21 3 0
BITMAP
001800
003800
003800
003800
003000
003000
003000
007000
007000
007000
FFFFF0
FFFFF0
00E000
00E000
00E000
00C000
00C000
00C000
01C000
01C000
018000
ENDCHAR
STARTCHAR comma
ENCODING 44
SWIDTH 265 0
DWIDTH 9 0
BBX 8 13 1 -7
BITMAP
3F
3F
3F
3E
7E
7E
1E
1E
1C
3C
38
F0
C0
ENDCHAR
STARTCHAR minus
ENCODING 45
SWIDTH 636 0
DWIDTH 21 0
BBX 20 2 3 10
BITMAP
FFFFF0
FFFFF0
ENDCHAR
STARTCHAR period
ENCODING 46
SWIDTH 265 0
DWIDTH 9 0
BBX 6 5 2 0
BITMAP
7C
7C
FC
F8
F8
ENDCHAR
STARTCHAR slash
ENCODING 47
SWIDTH 515 0
DWIDTH 17 0
BBX 23 32 0 -6
BITMAP
00000E
00000C
000018
000038
000030
000060
0000E0
0000C0
000180
000380
000300
000700
000600
000C00
001C00
001800
003000
007000
006000
00E000
00C000
018000
038000
030000
060000
0E0000
0C0000
1C0000
380000
300000
700000
E00000
ENDCHAR
STARTCHAR zero
ENCODING 48
SWIDTH 623 0
DWIDTH 22 0
BBX 20 25 3 0
BITMAP
007E00
01FF80
03C3C0
0783E0
0F01E0
1F01E0
1E01F0
3E01F0
3E01F0
7C01F0
7C01F0
7C01F0
FC03F0
F803E0
F803E0
F803E0
F807C0
F807C0
F80780
F80F80
781F00
7C1E00
3C7C00
1FF800
07C000
ENDCHAR
STARTCHAR one
ENCODING 49
SWIDTH 636 0
DWIDTH 22 0
BBX 14 25 4 0
BITMAP
0FFC
0FFC
00FC
00F8
00F8
00F8
00F8
00F8
01F0
01F0
01F0
01F0
01F0
03E0
03E0
03E0
03E0
03E0
07C0
07C0
07C0
07C0
1FC0
FFFC
FFFC
ENDCHAR
STARTCHAR two
ENCODING 50
SWIDTH 636 0
DWIDTH 22 0
BBX 20 25 3 0
BITMAP
007F00
07FFC0
0787E0
0703F0
0601F0
0E01F0
0C01F0
0001F0
0003E0
0007E0
000780
000F00
003E00
007800
00E000
038000
070000
0E0000
1C0000
380000
380000
7FFF80
FFFF80
FFFF00
FFFF00
ENDCHAR
STARTCHAR three
ENCODING 51
SWIDTH 636 0
DWIDTH 22 0
BBX 19 25 3 0
BITMAP
01FE00
07FF80
070FC0
0603E0
0603E0
0E03E0
0003E0
0003C0
000780
000F00
003E00
07F000
07FE00
003F00
001F80
000F80
000F80
000F80
000F80
600F80
601F00
E03F00
F07E00
FFF800
3FE000
ENDCHAR
STARTCHAR four
ENCODING 52
SWIDTH 636 0
DWIDTH 22 0
BBX 19 25 3 0
BITMAP
0003E0
0007C0
000FC0
001FC0
001BC0
0037C0
006780
00C780
018780
038780
070F80
0E0F00
1C0F00
380F00
700F00
7FFFE0
FFFFE0
FFFFC0
001E00
001E00
003E00
003E00
007E00
01FF80
01FF80
ENDCHAR
STARTCHAR five
ENCODING 53
SWIDTH 636 0
DWIDTH 22 0
BBX 20 25 4 0
BITMAP
07FFF0
07FFF0
07FFF0
07FFE0
040000
0C0000
0C0000
0C0000
080000
0FC000
1FF800
00FE00
003F00
001F00
000F80
000F80
000F80
000F80
000F80
600F00
601F00
603E00
F07C00
FFF000
7F8000
ENDCHAR
STARTCHAR six
ENCODING 54
SWIDTH 636 0
DWIDTH 22 0
BBX 20 25 4 0
BITMAP
003FC0
00FFF0
01E0F0
07C070
0F8060
1F0060
1F0000
3E0000
3E0000
7C7E00
7DFF00
7F0F80
FE07C0
FC07C0
F807C0
F807C0
F807C0
F807C0
F807C0
F80780
780F80
7C1F00
3E3E00
1FF800
07E000
ENDCHAR
STARTCHAR seven
ENCODING 55
SWIDTH 636 0
DWIDTH 22 0
BBX 19 25 6 0
BITMAP
3FFFE0
3FFFE0
3FFFE0
7FFFC0
000180
000300
000700
000E00
001C00
003800
003000
007000
00E000
01C000
03C000
078000
0F0000
1F0000
3E0000
3E0000
7C0000
7C0000
FC0000
F80000
F80000
ENDCHAR
STARTCHAR eight
ENCODING 56
SWIDTH 636 0
DWIDTH 22 0
BBX 20 25 3 0
BITMAP
003F80
01FFC0
03E3E0
0781F0
0F80F0
0F00F0
0F81F0
0F81E0
0FC3C0
07F780
03FE00
01FE00
07FF00
1E7F80
3C1FC0
7C0FE0
7807E0
F803E0
F803E0
F803C0
FC03C0
FC0780
7E0F00
3FFC00
0FE000
ENDCHAR
STARTCHAR nine
ENCODING 57
SWIDTH 636 0
DWIDTH 22 0
BBX 20 25 3 0
BITMAP
007E00
01FF80
07C7C0
0F83E0
0F01E0
1E01F0
3E01F0
3E01F0
3E01F0
3E01F0
3E01F0
3E03F0
3E07F0
1F0FE0
0FFBE0
07E3E0
0007C0
0007C0
000F80
600F80
601F00
E03E00
F07800
FFF000
3FC000
ENDCHAR
STARTCHAR colon
ENCODING 58
SWIDTH 265 0
DWIDTH 9 0
BBX 9 18 2 0
BITMAP
0F80
0F80
1F00
1F00
1F00
0000
0000
0000
0000
0000
0000
0000
0000
7C00
7C00
7C00
F800
F800
ENDCHAR
STARTCHAR semicolon
ENCODING 59
SWIDTH 265 0
DWIDTH 9 0
BBX 10 25 1 -7
BITMAP
07C0
07C0
0F80
0F80
0F80
0000
0000
0000
0000
0000
0000
0000
0000
0000
3E00
3E00
3E00
7E00
1C00
1C00
1C00
3800
7800
F000
C000
ENDCHAR
STARTCHAR less
ENCODING 60
SWIDTH 636 0
DWIDTH 21 0
BBX 22 21 3 0
BITMAP
000004
00001C
00007C
0001F0
0007C0
001F00
007C00
03F000
0FC000
3E0000
F80000
3E0000
0F8000
07E000
01F000
007C00
003F00
000F80
0003E0
0000C0
000040
ENDCHAR
STARTCHAR equal
ENCODING 61
SWIDTH 636 0
DWIDTH 21 0
BBX 21 9 2 5
BITMAP
7FFFF8
7FFFF8
000000
000000
000000
000000
000000
FFFFF0
FFFFF0
ENDCHAR
STARTCHAR greater
ENCODING 62
SWIDTH 636 0
DWIDTH 21 0
BBX 22 21 1 0
BITMAP
080000
0C0000
1F0000
07C000
03F000
00F800
003E00
001F80
0007C0
0001F0
00007C
0001F0
000FC0
003F00
00F800
03E000
0F8000
3E0000
F80000
E00000
800000
ENDCHAR
STARTCHAR question
ENCODING 63
SWIDTH 493 0
DWIDTH 17 0
BBX 15 25 5 0
BITMAP
0FF0
7FF8
78FC
707E
603E
E03E
003E
003C
0078
0070
00E0
01C0
0380
0F00
1E00
1E00
3E00
7C00
0000
0000
0000
7C00
7800
F800
F800
ENDCHAR
STARTCHAR at
ENCODING 64
SWIDTH 861 0
DWIDTH 29 0
BBX 26 25 4 0
BITMAP
000FE000
007FF800
01F03E00
03800700
06000300
0C0F0180
183F8080
3071E0C0
30E0E0C0
61C0E0C0
4180E0C0
C381C0C0
C381C0C0
C383C0C0
C383C180
C3858180
C38D8300
C399CE00
43F1FC00
61C1F000
30000000
38000000
1E010000
07FF0000
01FC0000
ENDCHAR
STARTCHAR A
ENCODING 65
SWIDTH 765 0
DWIDTH 26 0
BBX 26 25 0 0
BITMAP
0000E000
0001E000
0001F000
0003F000
0003F000
0007F000
000FF000
000CF800
0018F800
0038F800
0030F800
00607C00
00607C00
00C07C00
01807C00
01FFFC00
03FFFE00
07003E00
06003E00
0C003E00
0C001F00
18001F00
38001F80
FE00FFC0
FE00FFC0
ENDCHAR
STARTCHAR B
ENCODING 66
SWIDTH 651 0
DWIDTH 22 0
BBX 22 25 1 0
BITMAP
07FFE0
07FFF8
01F1FC
01E07C
01E07C
01E07C
03E07C
03E078
03C0F8
03C1F0
07C7E0
07FF80
07FF00
0787C0
0783E0
0F81F0
0F81F0
0F80F8
0F01F8
0F01F8
1F01F0
1F03F0
3F0FE0
FFFFC0
FFFE00
ENDCHAR
STARTCHAR C
ENCODING 67
SWIDTH 740 0
DWIDTH 25 0
BBX 24 25 4 0
BITMAP
000FFC
007FFF
01F81F
03E00E
07C006
0F8006
1F000E
1E0000
3E0000
7E0000
7C0000
7C0000
FC0000
FC0000
FC0000
FC0000
FC0000
FC0000
FC0000
7C0000
7E0000
3F0000
1F8070
0FFFF0
03FF00
ENDCHAR
STARTCHAR D
ENCODING 68
SWIDTH 822 0
DWIDTH 28 0
BBX 28 25 1 0
BITMAP
07FFFC00
07FFFF00
01F01FC0
01F007E0
01F003E0
01F003F0
03F003F0
03E001F0
03E001F0
03E001F0
03E001F0
07E001F0
07C003F0
07C003E0
07C003E0
07C003E0
0FC007C0
0F8007C0
0F800F80
0F801F80
1F803F00
1F807E00
3F81F800
FFFFF000
FFFF8000
ENDCHAR
STARTCHAR E
ENCODING 69
SWIDTH 630 0
DWIDTH 21 0
BBX 23 25 1 0
BITMAP
07FFFE
07FFFE
01F00E
01F00C
01F00C
01F000
03E000
03E000
03E000
03E060
03E0C0
07FFC0
07FFC0
07C0C0
07C0C0
07C000
0F8000
0F8000
0F8000
0F8000
1F8070
1F0060
3F00E0
FFFFE0
FFFFE0
ENDCHAR
STARTCHAR F
ENCODING 70
SWIDTH 602 0
DWIDTH 20 0
BBX 23 25 1 0
BITMAP
07FFFE
07FFFE
01F00E
01F00C
01F00C
01F000
03E000
03E000
03E000
03E060
03E0C0
07FFC0
07FFC0
07C0C0
07C0C0
07C000
0F8000
0F8000
0F8000
0F8000
1F8000
1F8000
3F8000
FFE000
FFE000
ENDCHAR
STARTCHAR G
ENCODING 71
SWIDTH 780 0
DWIDTH 26 0
BBX 24 25 4 0
BITMAP
000FFC
007FFF
01F81F
03E00F
07C006
0F8006
1F000E
1F0000
3E0000
3E0000
7C0000
7C0000
FC0000
FC07FF
FC07FF
FC00FC
FC00F8
FC00F8
FC01F0
7C01F0
7E01F0
3E01F0
1F81F0
0FFFE0
03FE00
ENDCHAR
STARTCHAR H
ENCODING 72
SWIDTH 827 0
DWIDTH 28 0
BBX 31 25 1 0
BITMAP
07FF0FFE
07FE0FFE
01F803F8
01F003F0
01F003F0
01F003E0
03F003E0
03E003E0
03E007E0
03E007C0
03E007C0
07FFFFC0
07FFFFC0
07C00FC0
07C00F80
07C00F80
0FC00F80
0F800F80
0F801F80
0F801F00
1F801F00
1F801F00
3F803F00
FFE0FFC0
FFE1FFC0
ENDCHAR
STARTCHAR I
ENCODING 73
SWIDTH 372 0
DWIDTH 13 0
BBX 15 25 1 0
BITMAP
07FE
0FFE
01F8
01F0
03F0
03E0
03E0
03E0
03E0
03E0
07C0
07C0
07C0
07C0
07C0
0F80
0F80
0F80
0F80
0F80
1F00
1F00
3F00
FFE0
FFC0
ENDCHAR
STARTCHAR J
ENCODING 74
SWIDTH 478 0
DWIDTH 16 0
BBX 21 31 0 -6
BITMAP
003FF8
003FF8
000FE0
000FC0
000FC0
000F80
000F80
000F80
000F80
001F80
001F00
001F00
001F00
001F00
003F00
003E00
003E00
003E00
003E00
007E00
007C00
007C00
007C00
007C00
00FC00
70F800
60F800
60F000
E1E000
FFC000
FE0000
ENDCHAR
STARTCHAR K
ENCODING 75
SWIDTH 746 0
DWIDTH 25 0
BBX 26 25 1 0
BITMAP
07FE1FC0
07FE1FC0
01F80700
01F00C00
01E01800
03E07000
03E0E000
03E1C000
03E30000
03C60000
07DC0000
07FE0000
07FE0000
07FF0000
079F8000
0F9F8000
0F8FC000
0F87E000
0F87F000
0F03F000
1F01F800
1F01FC00
3F00FE00
FFC3FF00
FFC3FF00
ENDCHAR
STARTCHAR L
ENCODING 76
SWIDTH 611 0
DWIDTH 21 0
BBX 20 25 1 0
BITMAP
07FE00
07FE00
01F800
01F000
01F000
01F000
03E000
03E000
03E000
03E000
03E000
07C000
07C000
07C000
07C000
07C000
0F8000
0F8000
0F8000
0F8070
1F8070
1F8070
3F8060
FFFFE0
FFFFE0
ENDCHAR
STARTCHAR M
ENCODING 77
SWIDTH 926 0
DWIDTH 31 0
BBX 34 25 1 0
BITMAP
07F0003FC0
07F0003FC0
01F0007F00
01F8007E00
01F800FE00
01F801BC00
03F8017C00
03BC037C00
033C067C00
033C067800
033E0C7800
071E08F800
071E18F800
061E30F800
061F20F000
060F60F000
0E0FC1F000
0E0F81F000
0C0781F000
0C0701E000
1C0601E000
1C0003E000
3C0007E000
FF001FF800
FF001FF800
ENDCHAR
STARTCHAR N
ENCODING 78
SWIDTH 797 0
DWIDTH 27 0
BBX 30 25 1 0
BITMAP
07E003FC
07F003FC
01F000F0
01F800E0
01FC00E0
01FC00C0
03FE00C0
03BE01C0
03BF01C0
031F0180
031F8180
070F8180
0707C380
0707C380
0603E300
0603E300
0E01F700
0E01F700
0C00FF00
0C00FE00
1C007E00
1C003E00
3C003E00
FF001E00
FF001C00
ENDCHAR
STARTCHAR O
ENCODING 79
SWIDTH 831 0
DWIDTH 28 0
BBX 26 25 4 0
BITMAP
000FF000
007FFC00
00F83E00
03E01F00
07C00F80
0F800F80
1F000F80
1F000FC0
3E000FC0
7E000FC0
7C000FC0
7C000FC0
FC000F80
FC000F80
FC000F80
FC001F00
FC001F00
FC003E00
FC003C00
7C007C00
7C00F800
3E01E000
1F07C000
0FFF0000
03F80000
ENDCHAR
STARTCHAR P
ENCODING 80
SWIDTH 628 0
DWIDTH 21 0
BBX 23 25 1 0
BITMAP
07FFF0
07FFF8
01F07C
01F03E
01F03E
01E03E
03E03E
03E03E
03E07C
03E07C
03C0F8
07C1F0
07C3E0
07FFC0
07FE00
078000
0F8000
0F8000
0F8000
0F8000
1F0000
1F0000
3F0000
FFE000
FFE000
ENDCHAR
STARTCHAR Q
ENCODING 81
SWIDTH 835 0
DWIDTH 28 0
BBX 29 32 4 -7
BITMAP
000FF000
007FFC00
00F83E00
03E01F00
07C00F00
0F800F80
1F000F80
1F000FC0
3E000FC0
7E000FC0
7C000FC0
7C000FC0
FC000FC0
FC000F80
FC000F80
FC001F80
FC001F80
FC003F00
FC003F00
7C007E00
7C00FC00
3E01FC00
3F07F800
0FFFF000
03FFC000
001F8000
000E0000
00030000
0001C000
0000F800
00003FF8
00000FC0
ENDCHAR
STARTCHAR R
ENCODING 82
SWIDTH 711 0
DWIDTH 24 0
BBX 23 25 1 0
BITMAP
07FFF0
07FFFC
01F07E
01F03E
01F03E
03E03E
03E03E
03E03C
03E07C
03E078
07C0F0
07C3E0
07FFC0
07FF80
07CF80
0F8FC0
0F87C0
0F87E0
0F83E0
0F83F0
1F01F0
1F01F8
3F00F8
FFC0FE
FFC07E
ENDCHAR
STARTCHAR S
ENCODING 83
SWIDTH 587 0
DWIDTH 20 0
BBX 20 25 2 0
BITMAP
003FC0
01FFF0
03E0F0
078070
0F8060
0F8060
0F8000
0F8000
0FC000
0FE000
07F000
03FC00
01FE00
00FF00
007F80
001F80
000FC0
000FC0
000FC0
600F80
600F80
E01F00
F83E00
FFFC00
3FE000
ENDCHAR
STARTCHAR T
ENCODING 84
SWIDTH 716 0
DWIDTH 24 0
BBX 24 25 5 0
BITMAP
7FFFFF
7FFFFF
703E06
E07C06
E07C06
007C00
007C00
007C00
00F800
00F800
00F800
00F800
01F800
01F000
01F000
01F000
01F000
03F000
03E000
03E000
03E000
07E000
07E000
3FFC00
3FF800
ENDCHAR
STARTCHAR U
ENCODING 85
SWIDTH 775 0
DWIDTH 26 0
BBX 25 25 5 0
BITMAP
7FE07F80
FFE07F80
1F800E00
1F000C00
3F001C00
3E001800
3E001800
3E001800
3E001800
7E003800
7C003000
7C003000
7C003000
7C003000
FC007000
F8006000
F8006000
F8006000
F800C000
F800C000
FC018000
7C038000
3E070000
1FFE0000
07F00000
ENDCHAR
STARTCHAR V
ENCODING 86
SWIDTH 741 0
DWIDTH 25 0
BBX 26 25 4 0
BITMAP
FFC00FC0
FFC01FC0
3F000700
3F000600
1F000E00
1F000C00
1F001800
1F003800
1F803000
0F807000
0F806000
0F80C000
0FC1C000
0FC18000
07C30000
07C70000
07C60000
07EE0000
03FC0000
03F80000
03F80000
03F00000
01E00000
01E00000
01C00000
ENDCHAR
STARTCHAR W
ENCODING 87
SWIDTH 922 0
DWIDTH 31 0
BBX 32 25 4 0
BITMAP
FF80C03F
FF81C03F
7E01C01C
3E03C018
3E03E018
3E07E030
3E07E030
3E0FE060
3E0FE060
3E1BE0C0
3E1BE0C0
3E31E180
1E31E180
1E21E300
1E61E300
1E41F600
1EC1F600
1F81FC00
1F81FC00
1F01F800
1F01F800
1E01F000
1E01E000
1C00E000
1C00C000
ENDCHAR
STARTCHAR X
ENCODING 88
SWIDTH 672 0
DWIDTH 23 0
BBX 27 25 0 0
BITMAP
03FE07E0
07FE0FE0
01F80380
00F80700
00FC0E00
007C1C00
007C1800
007E3000
003E6000
003FC000
001F8000
001F8000
000F8000
001F8000
0037C000
0067C000
00C7E000
0183E000
0303F000
0701F000
0E01F000
1C00F800
3800FC00
FE03FE00
FC07FE00
ENDCHAR
STARTCHAR Y
ENCODING 89
SWIDTH 669 0
DWIDTH 23 0
BBX 23 25 5 0
BITMAP
FFC07E
FFC0FE
7E0038
3F0030
1F0060
1F00C0
1F8180
0F8380
0F8300
07C600
07CC00
07F800
03F800
03F000
03E000
03E000
03E000
03E000
07E000
07C000
07C000
07C000
0FC000
7FF800
7FF000
ENDCHAR
STARTCHAR Z
ENCODING 90
SWIDTH 684 0
DWIDTH 23 0
BBX 23 25 2 0
BITMAP
03FFFE
07FFFE
0700FC
0701F8
0601F8
0003F0
0007E0
000FC0
000FC0
001F80
003F00
007E00
00FC00
00FC00
01F800
03F000
07E000
07E000
0FC000
1F8000
3F0070
7F0060
7E00E0
FFFFE0
FFFFE0
ENDCHAR
STARTCHAR bracketleft
ENCODING 91
SWIDTH 336 0
DWIDTH 11 0
BBX 14 32 1 -6
BITMAP
03FC
03FC
03C0
03C0
07C0
0780
0780
0780
0780
0F80
0F00
0F00
0F00
0F00
1F00
1E00
1E00
1E00
1E00
3E00
3C00
3C00
3C00
3C00
7C00
7800
7800
7800
7800
F800
FF00
FF00
ENDCHAR
STARTCHAR backslash
ENCODING 92
SWIDTH 515 0
DWIDTH 17 0
BBX 10 32 6 -6
BITMAP
C000
6000
6000
6000
6000
3000
3000
3000
3000
3000
1800
1800
1800
1800
0C00
0C00
0C00
0C00
0600
0600
0600
0600
0300
0300
0300
0300
0300
0180
0180
0180
0180
00C0
ENDCHAR
STARTCHAR bracketright
ENCODING 93
SWIDTH 336 0
DWIDTH 11 0
BBX 14 32 0 -6
BITMAP
03FC
03FC
007C
0078
0078
0078
00F8
00F8
00F0
00F0
00F0
01F0
01F0
01E0
01E0
01E0
03E0
03E0
03C0
03C0
03C0
03C0
07C0
0780
0780
0780
0780
0F80
0F00
0F00
FF00
FF00
ENDCHAR
STARTCHAR asciicircum
ENCODING 94
SWIDTH 636 0
DWIDTH 21 0
BBX 20 21 2 4
BITMAP
000400
000400
000E00
000E00
001E00
003E00
003700
007700
00E300
00C380
01C380
038380
0301C0
0701C0
0E01C0
0C00C0
1C00E0
3800E0
300060
700070
E00070
ENDCHAR
STARTCHAR underscore
ENCODING 95
SWIDTH 500 0
DWIDTH 17 0
BBX 14 2 1 -4
BITMAP
FFFC
FFFC
ENDCHAR
STARTCHAR quoteleft
ENCODING 96
SWIDTH 265 0
DWIDTH 9 0
BBX 8 11 5 15
BITMAP
03
0F
1C
38
38
78
7E
7C
7C
FC
FC
ENDCHAR
STARTCHAR a
ENCODING 97
SWIDTH 634 0
DWIDTH 22 0
BBX 20 18 2 0
BITMAP
003FF0
01FFF0
0383E0
0703E0
0E03E0
1E03E0
3C03E0
3C07C0
7C07C0
7C0FC0
F81FC0
F837C0
F87780
F8EF80
FFCF80
FF8F80
7F0FE0
3C1FE0
ENDCHAR
STARTCHAR b
ENCODING 98
SWIDTH 633 0
DWIDTH 21 0
BBX 20 26 3 0
BITMAP
1FC000
3FC000
07C000
07C000
0F8000
0F8000
0F8000
0F8000
0F83C0
1F0FE0
1F1FF0
1F3FF0
1F71F0
1FE1F0
3EC1F0
3F81E0
3F03E0
3E03E0
3E03C0
7C03C0
7C0780
7C0700
7C0E00
7C1C00
FFF000
FFC000
ENDCHAR
STARTCHAR c
ENCODING 99
SWIDTH 524 0
DWIDTH 18 0
BBX 17 18 3 0
BITMAP
007F00
01FF80
07C780
0F0380
1E0380
3E0300
3C0000
7C0000
7C0000
F80000
F80000
F80000
F80000
F80000
FC0000
7E0600
3FFC00
0FE000
ENDCHAR
STARTCHAR d
ENCODING 100
SWIDTH 634 0
DWIDTH 22 0
BBX 21 26 3 0
BITMAP
0007F8
0007F8
0000F8
0001F0
0001F0
0001F0
0001F0
0001F0
003FE0
01FFE0
0387E0
0703E0
0E03E0
1E03C0
3C07C0
3C07C0
7C0FC0
780FC0
F81F80
F83F80
F87F80
F8EF80
FFCF80
FF8F80
7F1FE0
3C1FE0
ENDCHAR
STARTCHAR e
ENCODING 101
SWIDTH 548 0
DWIDTH 19 0
BBX 17 18 3 0
BITMAP
007C00
01FF00
071F00
0E0F00
1E0F80
3C0F00
3C1F00
7C3E00
78FC00
FFF000
FFC000
F80000
F80000
F80000
FC0300
7E0F00
3FFE00
0FF000
ENDCHAR
STARTCHAR f
ENCODING 102
SWIDTH 415 0
DWIDTH 14 0
BBX 18 34 2 -7
BITMAP
001F80
007FC0
00F1C0
01E1C0
01E180
03C180
03C000
07C000
07C000
3FFE00
3FFC00
0F8000
0F8000
0F8000
0F8000
0F0000
1F0000
1F0000
1F0000
1F0000
1E0000
3E0000
3E0000
3E0000
3E0000
3C0000
7C0000
7C0000
7C0000
7C0000
780000
F80000
F80000
F80000
ENDCHAR
STARTCHAR g
ENCODING 103
SWIDTH 628 0
DWIDTH 21 0
BBX 21 25 1 -7
BITMAP
001FF8
00FFF8
01C1F8
0380F0
0781F0
0F01F0
1F01F0
1E03F0
3E07E0
3E07E0
3C0FE0
7C1FE0
7C3FE0
7E77C0
7FE7C0
7FC7C0
3F87C0
1E0F80
000F80
800F80
C00F00
F01E00
7C1C00
7FF800
3FC000
ENDCHAR
STARTCHAR h
ENCODING 104
SWIDTH 656 0
DWIDTH 22 0
BBX 19 26 3 0
BITMAP
3FC000
3FC000
0F8000
0F8000
0F8000
0F8000
0F8000
0F8000
1F03C0
1F0FE0
1F1FE0
1F3FE0
1F73E0
3EE3E0
3EC3C0
3F87C0
3F07C0
3E07C0
7E07C0
7C0780
7C0F80
7C0F80
7C0F80
F80F80
F80FE0
F81FE0
ENDCHAR
STARTCHAR i
ENCODING 105
SWIDTH 319 0
DWIDTH 11 0
BBX 10 25 3 0
BITMAP
07C0
07C0
0780
0F80
0000
0000
0000
7F80
7F00
1F00
1F00
1F00
1E00
3E00
3E00
3E00
3E00
3C00
7C00
7C00
7C00
7C00
7C00
FF00
FF00
ENDCHAR
STARTCHAR j
ENCODING 106
SWIDTH 381 0
DWIDTH 13 0
BBX 18 32 -2 -7
BITMAP
0007C0
0007C0
000780
000F80
000000
000000
000000
007F00
007F00
001F00
001F00
001F00
001E00
003E00
003E00
003E00
003E00
003C00
007C00
007C00
007C00
007C00
007800
00F800
00F800
00F800
60F000
61F000
E1E000
E3C000
FF8000
7E0000
ENDCHAR
STARTCHAR k
ENCODING 107
SWIDTH 626 0
DWIDTH 21 0
BBX 19 26 3 0
BITMAP
3FC000
3FC000
07C000
07C000
0F8000
0F8000
0F8000
0F8000
0F83E0
1F03E0
1F03C0
1F07C0
1F0780
1F1E00
3E3C00
3EF000
3FF000
3EF800
3CF800
7C7C00
7C7C00
7C3E00
7C3F00
781F80
F80FE0
F80FE0
ENDCHAR
STARTCHAR l
ENCODING 108
SWIDTH 319 0
DWIDTH 11 0
BBX 10 26 3 0
BITMAP
3FC0
3FC0
0FC0
0F80
0F80
0F80
0F80
0F80
1F00
1F00
1F00
1F00
1F00
3E00
3E00
3E00
3E00
3E00
7C00
7C00
7C00
7C00
7C00
FC00
FF00
FF00
ENDCHAR
STARTCHAR m
ENCODING 109
SWIDTH 969 0
DWIDTH 33 0
BBX 30 18 3 0
BITMAP
7F87C0F8
7F0FC3F8
1F1FE7FC
1F3FEFFC
1F63EE7C
1EC3DC7C
3E83F878
3F87F0F8
3F07E0F8
3E07E0F8
3C07C0F8
7C0F80F0
7C0F81F0
7C0F81F0
780F81F0
780F01F0
F81F01FC
F81F03FC
ENDCHAR
STARTCHAR n
ENCODING 110
SWIDTH 656 0
DWIDTH 22 0
BBX 19 18 3 0
BITMAP
7F07C0
7F0FE0
1F1FE0
1F3FE0
1F73E0
3EE3E0
3FC3C0
3F87C0
3F07C0
3F07C0
7E07C0
7C0780
7C0F80
7C0F80
7C0F80
F80F80
F80FE0
F81FE0
ENDCHAR
STARTCHAR o
ENCODING 111
SWIDTH 599 0
DWIDTH 20 0
BBX 19 18 3 0
BITMAP
007E00
01FF80
0787C0
0F07C0
1E03E0
3E03E0
3C03E0
7C03E0
7C03E0
FC07C0
F807C0
F80780
F80F80
FC0F00
FC1E00
7E3C00
3FF000
0FC000
ENDCHAR
STARTCHAR p
ENCODING 112
SWIDTH 639 0
DWIDTH 22 0
BBX 21 25 2 -7
BITMAP
3FC1E0
3FC7F0
0F8FF8
0F9FF8
0FB8F8
0FF0F8
1F60F8
1FC0F8
1F81F0
1F01F0
1F01E0
1E01E0
3E03C0
3E0380
3E0700
3F0E00
3FFC00
7FE000
7C0000
7C0000
7C0000
7C0000
F80000
F80000
F80000
ENDCHAR
STARTCHAR q
ENCODING 113
SWIDTH 630 0
DWIDTH 21 0
BBX 20 25 2 -7
BITMAP
003FF0
01FFF0
0383F0
0703E0
0E03E0
1E03E0
3C03E0
3C07E0
7C07C0
780FC0
F81FC0
F837C0
F877C0
F8EF80
FFCF80
FF8F80
7F0F80
3C0F80
001F00
001F00
001F00
001F00
001F00
003E00
003E00
ENDCHAR
STARTCHAR r
ENCODING 114
SWIDTH 496 0
DWIDTH 17 0
BBX 17 18 3 0
BITMAP
7F0780
7F0F80
1F3F00
1F7F00
1F7200
3EE000
3FC000
3F8000
3F0000
3E0000
7E0000
7C0000
7C0000
7C0000
7C0000
F80000
F80000
F80000
ENDCHAR
STARTCHAR s
ENCODING 115
SWIDTH 479 0
DWIDTH 16 0
BBX 16 18 2 0
BITMAP
01FE
07FF
0F07
0F06
1F06
1F06
0F80
0FC0
07F0
03F8
01F8
00FC
607C
607C
E07C
F0F8
FFF0
3FC0
ENDCHAR
STARTCHAR t
ENCODING 116
SWIDTH 375 0
DWIDTH 13 0
BBX 12 23 3 0
BITMAP
0380
0F00
1F00
1F00
1F00
FFF0
FFF0
1E00
3E00
3E00
3E00
3E00
7C00
7C00
7C00
7C00
7C00
F800
F800
F800
FC00
7F80
3F00
ENDCHAR
STARTCHAR u
ENCODING 117
SWIDTH 655 0
DWIDTH 22 0
BBX 19 18 4 0
BITMAP
FF1FE0
FF1FE0
3E07E0
3E07C0
3E07C0
3E07C0
3C07C0
7C07C0
7C0F80
7C1F80
7C3F80
786F80
F8EF80
F9CF00
FF9F00
FF1F00
FE1FC0
781FC0
ENDCHAR
STARTCHAR v
ENCODING 118
SWIDTH 584 0
DWIDTH 20 0
BBX 20 18 3 0
BITMAP
FE03F0
FE01F0
3F01F0
3F01F0
1F01E0
1F01C0
1F8380
0F8380
0F8700
0F8E00
0F9C00
07D800
07F000
07E000
07C000
078000
078000
070000
ENDCHAR
STARTCHAR w
ENCODING 119
SWIDTH 822 0
DWIDTH 28 0
BBX 28 18 3 0
BITMAP
FC0303F0
FE0301F0
3E0380F0
1E0781E0
1F0781E0
1F0FC1C0
0F0FC380
0F1FC380
0F9BC700
0FBBCE00
0FF3EC00
0FE1FC00
0FE1F800
07C1F000
0781E000
0701E000
0701C000
06018000
ENDCHAR
STARTCHAR x
ENCODING 120
SWIDTH 534 0
DWIDTH 18 0
BBX 18 18 1 0
BITMAP
3F07C0
3F83C0
0F83C0
07C380
07C380
03E600
03EC00
01F800
01F000
01F000
03F800
0EF800
1C7C00
387C00
703E00
F03E00
F01F80
F01F80
ENDCHAR
STARTCHAR y
ENCODING 121
SWIDTH 586 0
DWIDTH 20 0
BBX 23 25 0 -7
BITMAP
1FC07E
1FC03E
07E01E
03E01E
03E01C
01F03C
01F038
01F070
01F0E0
00F0C0
00F9C0
00FB80
00FF00
00FE00
00FC00
007800
007000
007000
006000
00C000
038000
070000
0F0000
1E0000
FE0000
ENDCHAR
STARTCHAR z
ENCODING 122
SWIDTH 567 0
DWIDTH 19 0
BBX 19 18 2 0
BITMAP
0FFFE0
0FFFE0
1C07C0
1C0F80
181F00
003E00
007E00
00FC00
01F800
03F000
07E000
0FC000
0F8000
1F0180
3F0180
7E0380
FFFF00
FFFF00
ENDCHAR
STARTCHAR braceleft
ENCODING 123
SWIDTH 361 0
DWIDTH 12 0
BBX 12 32 3 -6
BITMAP
00F0
03F0
07C0
0780
0F80
0F80
0F80
0F80
0F80
0F80
0F80
0F00
0F00
1E00
1E00
F800
F000
3800
1C00
1C00
1E00
3E00
3C00
7C00
7C00
F800
F800
F800
F800
F800
7C00
1C00
ENDCHAR
STARTCHAR bar
ENCODING 124
SWIDTH 253 0
DWIDTH 9 0
BBX 9 32 2 -6
BITMAP
0380
0380
0380
0300
0700
0700
0700
0700
0600
0E00
0E00
0E00
0E00
0C00
1C00
1C00
1C00
1C00
1800
3800
3800
3800
3800
3000
7000
7000
7000
7000
6000
E000
E000
E000
ENDCHAR
STARTCHAR braceright
ENCODING 125
SWIDTH 361 0
DWIDTH 12 0
BBX 12 32 1 -6
BITMAP
0380
03E0
00F0
00F0
00F0
01F0
01F0
03E0
03E0
03C0
07C0
07C0
0380
0380
01C0
00F0
01F0
0380
0780
0F00
0F00
1F00
1F00
1F00
1F00
1F00
1F00
1F00
1E00
3E00
FC00
F000
ENDCHAR
STARTCHAR asciitilde
ENCODING 126
SWIDTH 636 0
DWIDTH 21 0
BBX 21 7 2 6
BITMAP
0F8000
3FC018
31E010
60F830
403C20
C01FE0
C00F80
ENDCHAR
STARTCHAR Aogonek
ENCODING 161
SWIDTH 765 0
DWIDTH 26 0
BBX 26 30 0 -5
BITMAP
0000E000
0001E000
0001F000
0003F000
0003F000
0007F000
000FF000
000CF800
0018F800
0038F800
0030F800
00607C00
00607C00
00C07C00
01807C00
01FFFC00
03FFFE00
07003E00
06003E00
0C003E00
0C001F00
18001F00
38001F80
FE00FFC0
FE00FFC0
00000E00
00001800
00003800
00003F00
00001F00
ENDCHAR
STARTCHAR breve
ENCODING 162
SWIDTH 475 0
DWIDTH 16 0
BBX 12 5 1 21
BITMAP
C030
E060
7FC0
7F80
1F00
ENDCHAR
STARTCHAR Lslash
ENCODING 163
SWIDTH 611 0
DWIDTH 21 0
BBX 20 25 1 0
BITMAP
07FE00
07FE00
01F800
01F000
01F000
01F000
03F000
03E000
03E000
03EE00
03FC00
07F000
3FC000
7FC000
07C000
07C000
0F8000
0F8000
0F8000
0F8070
1F8070
1F8070
3F8060
FFFFE0
FFFFE0
ENDCHAR
STARTCHAR currency
ENCODING 164
SWIDTH 636 0
DWIDTH 22 0
BBX 25 23 1 1
BITMAP
04000100
0C000380
06000600
07000C00
033F1800
01FFB000
01E1E000
01C0E000
03806000
03007000
07007000
07007000
06006000
0700E000
0700E000
0301C000
07878000
0FFFC000
1CFEC000
38006000
70003000
E0001800
40001000
ENDCHAR
STARTCHAR Lcaron
ENCODING 165
SWIDTH 611 0
DWIDTH 21 0
BBX 20 25 1 0
BITMAP
07FEF0
07FEF0
01F8F0
01F0F0
01F0F0
01F060
03E060
03E040
03E0C0
03E180
03E000
07C000
07C000
07C000
07C000
07C000
0F8000
0F8000
0F8000
0F8070
1F8070
1F8070
3F8060
FFFFE0
FFFFE0
ENDCHAR
STARTCHAR Sacute
ENCODING 166
SWIDTH 587 0
DWIDTH 20 0
BBX 20 32 2 0
BITMAP
0001F0
0003C0
000780
000E00
001C00
000000
000000
003FC0
01FFF0
03E0F0
078070
0F8060
0F8060
0F8000
0F8000
0FC000
0FE000
07F000
03FC00
01FE00
00FF00
007F80
001F80
000FC0
000FC0
000FC0
600F80
600F80
E01F00
F83E00
FFFC00
3FE000
ENDCHAR
STARTCHAR section
ENCODING 167
SWIDTH 636 0
DWIDTH 22 0
BBX 20 32 3 -7
BITMAP
003FC0
01FFF0
03E0F0
07C070
078060
0F8060
0F8000
0F8000
07E000
07F800
03FE00
03FF00
067F80
0E1FC0
1C07C0
1C03C0
3E03C0
3F0380
1FC380
1FF700
0FFE00
03FE00
00FF00
003F00
000F80
000F80
600F00
600F00
E01E00
F03C00
FFF800
1FE000
ENDCHAR
STARTCHAR dieresis
ENCODING 168
SWIDTH 599 0
DWIDTH 20 0
BBX 11 3 10 22
BITMAP
71E0
F1E0
F1C0
ENDCHAR
STARTCHAR Scaron
ENCODING 169
SWIDTH 587 0
DWIDTH 20 0
BBX 21 32 2 0
BITMAP
003038
001870
001DE0
000FC0
000F80
000000
000000
003FC0
01FFF0
03E0F0
078070
0F8060
0F8060
0F8000
0F8000
0FC000
0FE000
07F000
03FC00
01FE00
00FF00
007F80
001F80
000FC0
000FC0
000FC0
600F80
600F80
E01F00
F83E00
FFFC00
3FE000
ENDCHAR
STARTCHAR Scedilla
ENCODING 170
SWIDTH 587 0
DWIDTH 20 0
BBX 20 32 2 -7
BITMAP
003FC0
01FFF0
03E0F0
078070
0F8060
0F8060
0F8000
0F8000
0FC000
0FE000
07F000
03FC00
01FE00
00FF00
007F80
001F80
000FC0
000FC0
000FC0
600F80
600F80
E01F00
F83E00
FFFC00
3FE000
030000
078000
01C000
01C000
01C000
0FC000
0F8000
ENDCHAR
STARTCHAR Tcaron
ENCODING 171
SWIDTH 716 0
DWIDTH 24 0
BBX 24 32 5 0
BITMAP
00C0E0
0061C0
007780
003F00
003E00
000000
000000
7FFFFF
7FFFFF
703E06
E07C06
E07C06
007C00
007C00
007C00
00F800
00F800
00F800
00F800
01F800
01F000
01F000
01F000
01F000
03F000
03E000
03E000
03E000
07E000
07E000
3FFC00
3FF800
ENDCHAR
STARTCHAR Zacute
ENCODING 172
SWIDTH 684 0
DWIDTH 23 0
BBX 23 32 2 0
BITMAP
00007C
0000F0
0001E0
000380
000700
000000
000000
03FFFE
07FFFE
0700FC
0701F8
0601F8
0003F0
0007E0
000FC0
000FC0
001F80
003F00
007E00
00FC00
00FC00
01F800
03F000
07E000
07E000
0FC000
1F8000
3F0070
7F0060
7E00E0
FFFFE0
FFFFE0
ENDCHAR
STARTCHAR hyphen
ENCODING 173
SWIDTH 289 0
DWIDTH 10 0
BBX 8 3 3 10
BITMAP
7F
FF
FE
ENDCHAR
STARTCHAR Zcaron
ENCODING 174
SWIDTH 684 0
DWIDTH 23 0
BBX 23 32 2 0
BITMAP
003038
001870
001DE0
000FC0
000F80
000000
000000
03FFFE
07FFFE
0700FC
0701F8
0601F8
0003F0
0007E0
000FC0
000FC0
001F80
003F00
007E00
00FC00
00FC00
01F800
03F000
07E000
07E000
0FC000
1F8000
3F0070
7F0060
7E00E0
FFFFE0
FFFFE0
ENDCHAR
STARTCHAR Zdotaccent
ENCODING 175
SWIDTH 684 0
DWIDTH 23 0
BBX 23 31 2 0
BITMAP
0003C0
0003C0
000780
000780
000000
000000
03FFFE
07FFFE
0700FC
0701F8
0601F8
0003F0
0007E0
000FC0
000FC0
001F80
003F00
007E00
00FC00
00FC00
01F800
03F000
07E000
07E000
0FC000
1F8000
3F0070
7F0060
7E00E0
FFFFE0
FFFFE0
ENDCHAR
STARTCHAR degree
ENCODING 176
SWIDTH 259 0
DWIDTH 9 0
BBX 6 6 7 19
BITMAP
70
F8
C8
CC
F8
70
ENDCHAR
STARTCHAR aogonek
ENCODING 177
SWIDTH 634 0
DWIDTH 22 0
BBX 20 23 2 -5
BITMAP
003FF0
01FFF0
0383E0
0703E0
0E03E0
1E03E0
3C03E0
3C07C0
7C07C0
7C0FC0
F81FC0
F837C0
F87780
F8EF80
FFCF80
FF8F80
7F0FE0
3C1FE0
0001C0
000300
000700
0007E0
0003E0
ENDCHAR
STARTCHAR ogonek
ENCODING 178
SWIDTH 356 0
DWIDTH 12 0
BBX 6 5 4 -6
BITMAP
38
60
E0
FC
7C
ENDCHAR
STARTCHAR lslash
ENCODING 179
SWIDTH 319 0
DWIDTH 11 0
BBX 13 26 2 0
BITMAP
0FF0
0FE0
03E0
03E0
03E0
07C0
07C0
07C0
07C0
07C0
0F88
0FF8
0FE0
3F80
FF80
9F00
1F00
1F00
1F00
1F00
3E00
3E00
3E00
3E00
3F80
7F80
ENDCHAR
STARTCHAR acute
ENCODING 180
SWIDTH 599 0
DWIDTH 20 0
BBX 9 5 12 21
BITMAP
0F80
1E00
3C00
7000
E000
ENDCHAR
STARTCHAR lcaron
ENCODING 181
SWIDTH 406 0
DWIDTH 14 0
BBX 17 26 3 0
BITMAP
3FC780
3FC780
0FC780
0F8780
0F8780
0F8300
0F8300
0F8200
1F0600
1F0C00
1F0000
1F0000
1F0000
3E0000
3E0000
3E0000
3E0000
3E0000
7C0000
7C0000
7C0000
7C0000
7C0000
FC0000
FF0000
FF0000
ENDCHAR
STARTCHAR sacute
ENCODING 182
SWIDTH 479 0
DWIDTH 16 0
BBX 19 25 2 0
BITMAP
0003E0
000780
000F00
001C00
003800
000000
000000
01FE00
07FF00
0F0700
0F0600
1F0600
1F0600
0F8000
0FC000
07F000
03F800
01F800
00FC00
607C00
607C00
E07C00
F0F800
FFF000
3FC000
ENDCHAR
STARTCHAR caron
ENCODING 183
SWIDTH 446 0
DWIDTH 15 0
BBX 11 5 1 21
BITMAP
C0E0
61C0
7780
3F00
3E00
ENDCHAR
STARTCHAR cedilla
ENCODING 184
SWIDTH 356 0
DWIDTH 12 0
BBX 6 8 4 -7
BITMAP
18
30
78
1C
1C
1C
FC
F8
ENDCHAR
STARTCHAR scaron
ENCODING 185
SWIDTH 479 0
DWIDTH 16 0
BBX 19 25 2 0
BITMAP
00C0E0
0061C0
007780
003F00
003E00
000000
000000
01FE00
07FF00
0F0700
0F0600
1F0600
1F0600
0F8000
0FC000
07F000
03F800
01F800
00FC00
607C00
607C00
E07C00
F0F800
FFF000
3FC000
ENDCHAR
STARTCHAR scedilla
ENCODING 186
SWIDTH 479 0
DWIDTH 16 0
BBX 16 25 2 -7
BITMAP
01FE
07FF
0F07
0F06
1F06
1F06
0F80
0FC0
07F0
03F8
01F8
00FC
607C
607C
E07C
F0F8
FFF0
3FC0
0600
0F00
0380
0380
0380
1F80
1F00
ENDCHAR
STARTCHAR tcaron
ENCODING 187
SWIDTH 346 0
DWIDTH 12 0
BBX 15 30 3 0
BITMAP
001E
001E
001E
001E
001E
000C
000C
0388
0F18
1F30
1F00
1F00
FFF0
FFF0
1E00
3E00
3E00
3E00
3E00
7C00
7C00
7C00
7C00
7C00
F800
F800
F800
FC00
7F80
3F00
ENDCHAR
STARTCHAR zacute
ENCODING 188
SWIDTH 567 0
DWIDTH 19 0
BBX 19 25 2 0
BITMAP
0003E0
000780
000F00
001C00
003800
000000
000000
0FFFE0
0FFFE0
1C07C0
1C0F80
181F00
003E00
007E00
00FC00
01F800
03F000
07E000
0FC000
0F8000
1F0180
3F0180
7E0380
FFFF00
FFFF00
ENDCHAR
STARTCHAR hungarumlaut
ENCODING 189
SWIDTH 505 0
DWIDTH 17 0
BBX 13 5 1 21
BITMAP
0F78
1CE0
39C0
7300
C600
ENDCHAR
STARTCHAR zcaron
ENCODING 190
SWIDTH 567 0
DWIDTH 19 0
BBX 19 25 2 0
BITMAP
00C0E0
0061C0
007780
003F00
003E00
000000
000000
0FFFE0
0FFFE0
1C07C0
1C0F80
181F00
003E00
007E00
00FC00
01F800
03F000
07E000
0FC000
0F8000
1F0180
3F0180
7E0380
FFFF00
FFFF00
ENDCHAR
STARTCHAR zdotaccent
ENCODING 191
SWIDTH 567 0
DWIDTH 19 0
BBX 19 24 2 0
BITMAP
001E00
001E00
003C00
003C00
000000
000000
0FFFE0
0FFFE0
1C07C0
1C0F80
181F00
003E00
007E00
00FC00
01F800
03F000
07E000
0FC000
0F8000
1F0180
3F0180
7E0380
FFFF00
FFFF00
ENDCHAR
STARTCHAR Racute
ENCODING 192
SWIDTH 711 0
DWIDTH 24 0
BBX 23 32 1 0
BITMAP
0001F0
0003C0
000780
000E00
001C00
000000
000000
07FFF0
07FFFC
01F07E
01F03E
01F03E
03E03E
03E03E
03E03C
03E07C
03E078
07C0F0
07C3E0
07FFC0
07FF80
07CF80
0F8FC0
0F87C0
0F87E0
0F83E0
0F83F0
1F01F0
1F01F8
3F00F8
FFC0FE
FFC07E
ENDCHAR
STARTCHAR Aacute
ENCODING 193
SWIDTH 765 0
DWIDTH 26 0
BBX 26 32 0 0
BITMAP
00001F00
00003C00
00007800
0000E000
0001C000
00000000
00000000
0000E000
0001E000
0001F000
0003F000
0003F000
0007F000
000FF000
000CF800
0018F800
0038F800
0030F800
00607C00
00607C00
00C07C00
01807C00
01FFFC00
03FFFE00
07003E00
06003E00
0C003E00
0C001F00
18001F00
38001F80
FE00FFC0
FE00FFC0
ENDCHAR
STARTCHAR Acircumflex
ENCODING 194
SWIDTH 765 0
DWIDTH 26 0
BBX 26 32 0 0
BITMAP
00007C00
0000FC00
0001FE00
00038E00
00070300
00000000
00000000
0000E000
0001E000
0001F000
0003F000
0003F000
0007F000
000FF000
000CF800
0018F800
0038F800
0030F800
00607C00
00607C00
00C07C00
01807C00
01FFFC00
03FFFE00
07003E00
06003E00
0C003E00
0C001F00
18001F00
38001F80
FE00FFC0
FE00FFC0
ENDCHAR
STARTCHAR Abreve
ENCODING 195
SWIDTH 765 0
DWIDTH 26 0
BBX 26 32 0 0
BITMAP
000C0300
000E0600
0007FC00
0007F800
0001F000
00000000
00000000
0000E000
0001E000
0001F000
0003F000
0003F000
0007F000
000FF000
000CF800
0018F800
0038F800
0030F800
00607C00
00607C00
00C07C00
01807C00
01FFFC00
03FFFE00
07003E00
06003E00
0C003E00
0C001F00
18001F00
38001F80
FE00FFC0
FE00FFC0
ENDCHAR
STARTCHAR Adieresis
ENCODING 196
SWIDTH 765 0
DWIDTH 26 0
BBX 26 30 0 0
BITMAP
00038F00
00078F00
00078E00
00000000
00000000
0000E000
0001E000
0001F000
0003F000
0003F000
0007F000
000FF000
000CF800
0018F800
0038F800
0030F800
00607C00
00607C00
00C07C00
01807C00
01FFFC00
03FFFE00
07003E00
06003E00
0C003E00
0C001F00
18001F00
38001F80
FE00FFC0
FE00FFC0
ENDCHAR
STARTCHAR Lacute
ENCODING 197
SWIDTH 611 0
DWIDTH 21 0
BBX 20 32 1 0
BITMAP
0003E0
000780
000F00
001C00
003800
000000
000000
07FE00
07FE00
01F800
01F000
01F000
01F000
03E000
03E000
03E000
03E000
03E000
07C000
07C000
07C000
07C000
07C000
0F8000
0F8000
0F8000
0F8070
1F8070
1F8070
3F8060
FFFFE0
FFFFE0
ENDCHAR
STARTCHAR Cacute
ENCODING 198
SWIDTH 740 0
DWIDTH 25 0
BBX 24 32 4 0
BITMAP
00003E
000078
0000F0
0001C0
000380
000000
000000
000FFC
007FFF
01F81F
03E00E
07C006
0F8006
1F000E
1E0000
3E0000
7E0000
7C0000
7C0000
FC0000
FC0000
FC0000
FC0000
FC0000
FC0000
FC0000
7C0000
7E0000
3F0000
1F8070
0FFFF0
03FF00
ENDCHAR
STARTCHAR Ccedilla
ENCODING 199
SWIDTH 740 0
DWIDTH 25 0
BBX 24 32 4 -7
BITMAP
000FFC
007FFF
01F81F
03E00E
07C006
0F8006
1F000E
1E0000
3E0000
7E0000
7C0000
7C0000
FC0000
FC0000
FC0000
FC0000
FC0000
FC0000
FC0000
7C0000
7E0000
3F0000
1F8070
0FFFF0
03FF00
018000
03C000
00E000
00E000
00E000
07E000
07C000
ENDCHAR
STARTCHAR Ccaron
ENCODING 200
SWIDTH 740 0
DWIDTH 25 0
BBX 24 32 4 0
BITMAP
000C0E
00061C
000778
0003F0
0003E0
000000
000000
000FFC
007FFF
01F81F
03E00E
07C006
0F8006
1F000E
1E0000
3E0000
7E0000
7C0000
7C0000
FC0000
FC0000
FC0000
FC0000
FC0000
FC0000
FC0000
7C0000
7E0000
3F0000
1F8070
0FFFF0
03FF00
ENDCHAR
STARTCHAR Eacute
ENCODING 201
SWIDTH 630 0
DWIDTH 21 0
BBX 23 32 1 0
BITMAP
0000F8
0001E0
0003C0
000700
000E00
000000
000000
07FFFE
07FFFE
01F00E
01F00C
01F00C
01F000
03E000
03E000
03E000
03E060
03E0C0
07FFC0
07FFC0
07C0C0
07C0C0
07C000
0F8000
0F8000
0F8000
0F8000
1F8070
1F0060
3F00E0
FFFFE0
FFFFE0
ENDCHAR
STARTCHAR Eogonek
ENCODING 202
SWIDTH 630 0
DWIDTH 21 0
BBX 23 30 1 -5
BITMAP
07FFFE
07FFFE
01F00E
01F00C
01F00C
01F000
03E000
03E000
03E000
03E060
03E0C0
07FFC0
07FFC0
07C0C0
07C0C0
07C000
0F8000
0F8000
0F8000
0F8000
1F8070
1F0060
3F00E0
FFFFE0
FFFFE0
000380
000600
000E00
000FC0
0007C0
ENDCHAR
STARTCHAR Edieresis
ENCODING 203
SWIDTH 630 0
DWIDTH 21 0
BBX 23 30 1 0
BITMAP
001C78
003C78
003C70
000000
000000
07FFFE
07FFFE
01F00E
01F00C
01F00C
01F000
03E000
03E000
03E000
03E060
03E0C0
07FFC0
07FFC0
07C0C0
07C0C0
07C000
0F8000
0F8000
0F8000
0F8000
1F8070
1F0060
3F00E0
FFFFE0
FFFFE0
ENDCHAR
STARTCHAR Ecaron
ENCODING 204
SWIDTH 630 0
DWIDTH 21 0
BBX 23 32 1 0
BITMAP
003038
001870
001DE0
000FC0
000F80
000000
000000
07FFFE
07FFFE
01F00E
01F00C
01F00C
01F000
03E000
03E000
03E000
03E060
03E0C0
07FFC0
07FFC0
07C0C0
07C0C0
07C000
0F8000
0F8000
0F8000
0F8000
1F8070
1F0060
3F00E0
FFFFE0
FFFFE0
ENDCHAR
STARTCHAR Iacute
ENCODING 205
SWIDTH 372 0
DWIDTH 13 0
BBX 16 32 1 0
BITMAP
001F
003C
0078
00E0
01C0
0000
0000
07FE
0FFE
01F8
01F0
03F0
03E0
03E0
03E0
03E0
03E0
07C0
07C0
07C0
07C0
07C0
0F80
0F80
0F80
0F80
0F80
1F00
1F00
3F00
FFE0
FFC0
ENDCHAR
STARTCHAR Icircumflex
ENCODING 206
SWIDTH 372 0
DWIDTH 13 0
BBX 16 32 1 0
BITMAP
007C
00FC
01FE
038E
0703
0000
0000
07FE
0FFE
01F8
01F0
03F0
03E0
03E0
03E0
03E0
03E0
07C0
07C0
07C0
07C0
07C0
0F80
0F80
0F80
0F80
0F80
1F00
1F00
3F00
FFE0
FFC0
ENDCHAR
STARTCHAR Dcaron
ENCODING 207
SWIDTH 822 0
DWIDTH 28 0
BBX 28 32 1 0
BITMAP
000C0E00
00061C00
00077800
0003F000
0003E000
00000000
00000000
07FFFC00
07FFFF00
01F01FC0
01F007E0
01F003E0
01F003F0
03F003F0
03E001F0
03E001F0
03E001F0
03E001F0
07E001F0
07C003F0
07C003E0
07C003E0
07C003E0
0FC007C0
0F8007C0
0F800F80
0F801F80
1F803F00
1F807E00
3F81F800
FFFFF000
FFFF8000
ENDCHAR
STARTCHAR Eth
ENCODING 208
SWIDTH 822 0
DWIDTH 28 0
BBX 28 25 1 0
BITMAP
07FFFC00
07FFFF00
01F01FC0
01F007E0
01F003E0
01F003F0
03F003F0
03E001F0
03E001F0
03E001F0
07E001F0
3FFF01F0
3FFF03F0
07C003E0
07C003E0
0FC003E0
0FC007C0
0F8007C0
0F800F80
0F801F80
1F803F00
1F807E00
3F81F800
FFFFF000
FFFF8000
ENDCHAR
STARTCHAR Nacute
ENCODING 209
SWIDTH 797 0
DWIDTH 27 0
BBX 30 32 1 0
BITMAP
00000F80
00001E00
00003C00
00007000
0000E000
00000000
00000000
07E003FC
07F003FC
01F000F0
01F800E0
01FC00E0
01FC00C0
03FE00C0
03BE01C0
03BF01C0
031F0180
031F8180
070F8180
0707C380
0707C380
0603E300
0603E300
0E01F700
0E01F700
0C00FF00
0C00FE00
1C007E00
1C003E00
3C003E00
FF001E00
FF001C00
ENDCHAR
STARTCHAR Ncaron
ENCODING 210
SWIDTH 797 0
DWIDTH 27 0
BBX 30 32 1 0
BITMAP
00060700
00030E00
0003BC00
0001F800
0001F000
00000000
00000000
07E003FC
07F003FC
01F000F0
01F800E0
01FC00E0
01FC00C0
03FE00C0
03BE01C0
03BF01C0
031F0180
031F8180
070F8180
0707C380
0707C380
0603E300
0603E300
0E01F700
0E01F700
0C00FF00
0C00FE00
1C007E00
1C003E00
3C003E00
FF001E00
FF001C00
ENDCHAR
STARTCHAR Oacute
ENCODING 211
SWIDTH 831 0
DWIDTH 28 0
BBX 26 32 4 0
BITMAP
00007C00
0000F000
0001E000
00038000
00070000
00000000
00000000
000FF000
007FFC00
00F83E00
03E01F00
07C00F80
0F800F80
1F000F80
1F000FC0
3E000FC0
7E000FC0
7C000FC0
7C000FC0
FC000F80
FC000F80
FC000F80
FC001F00
FC001F00
FC003E00
FC003C00
7C007C00
7C00F800
3E01E000
1F07C000
0FFF0000
03F80000
ENDCHAR
STARTCHAR Ocircumflex
ENCODING 212
SWIDTH 831 0
DWIDTH 28 0
BBX 26 32 4 0
BITMAP
0003E000
0007E000
000FF000
001C7000
00381800
00000000
00000000
000FF000
007FFC00
00F83E00
03E01F00
07C00F80
0F800F80
1F000F80
1F000FC0
3E000FC0
7E000FC0
7C000FC0
7C000FC0
FC000F80
FC000F80
FC000F80
FC001F00
FC001F00
FC003E00
FC003C00
7C007C00
7C00F800
3E01E000
1F07C000
0FFF0000
03F80000
ENDCHAR
STARTCHAR Ohungarumlaut
ENCODING 213
SWIDTH 831 0
DWIDTH 28 0
BBX 26 32 4 0
BITMAP
00007BC0
0000E700
0001CE00
00039800
00063000
00000000
00000000
000FF000
007FFC00
00F83E00
03E01F00
07C00F80
0F800F80
1F000F80
1F000FC0
3E000FC0
7E000FC0
7C000FC0
7C000FC0
FC000F80
FC000F80
FC000F80
FC001F00
FC001F00
FC003E00
FC003C00
7C007C00
7C00F800
3E01E000
1F07C000
0FFF0000
03F80000
ENDCHAR
STARTCHAR Odieresis
ENCODING 214
SWIDTH 831 0
DWIDTH 28 0
BBX 26 30 4 0
BITMAP
001C7800
003C7800
003C7000
00000000
00000000
000FF000
007FFC00
00F83E00
03E01F00
07C00F80
0F800F80
1F000F80
1F000FC0
3E000FC0
7E000FC0
7C000FC0
7C000FC0
FC000F80
FC000F80
FC000F80
FC001F00
FC001F00
FC003E00
FC003C00
7C007C00
7C00F800
3E01E000
1F07C000
0FFF0000
03F80000
ENDCHAR
STARTCHAR multiply
ENCODING 215
SWIDTH 636 0
DWIDTH 21 0
BBX 23 21 1 0
BITMAP
040004
1C000E
0E001C
070038
078070
0381E0
01C3C0
00E780
00FE00
007C00
003800
007C00
00FE00
03CE00
078700
0F0380
1C03C0
3801C0
7000E0
E00070
400040
ENDCHAR
STARTCHAR Rcaron
ENCODING 216
SWIDTH 711 0
DWIDTH 24 0
BBX 23 32 1 0
BITMAP
003038
001870
001DE0
000FC0
000F80
000000
000000
07FFF0
07FFFC
01F07E
01F03E
01F03E
03E03E
03E03E
03E03C
03E07C
03E078
07C0F0
07C3E0
07FFC0
07FF80
07CF80
0F8FC0
0F87C0
0F87E0
0F83E0
0F83F0
1F01F0
1F01F8
3F00F8
FFC0FE
FFC07E
ENDCHAR
STARTCHAR Uring
ENCODING 217
SWIDTH 775 0
DWIDTH 26 0
BBX 25 32 5 0
BITMAP
000E0000
001B0000
00110000
001B0000
000E0000
00000000
00000000
7FE07F80
FFE07F80
1F800E00
1F000C00
3F001C00
3E001800
3E001800
3E001800
3E001800
7E003800
7C003000
7C003000
7C003000
7C003000
FC007000
F8006000
F8006000
F8006000
F800C000
F800C000
FC018000
7C038000
3E070000
1FFE0000
07F00000
ENDCHAR
STARTCHAR Uacute
ENCODING 218
SWIDTH 775 0
DWIDTH 26 0
BBX 25 32 5 0
BITMAP
0001F000
0003C000
00078000
000E0000
001C0000
00000000
00000000
7FE07F80
FFE07F80
1F800E00
1F000C00
3F001C00
3E001800
3E001800
3E001800
3E001800
7E003800
7C003000
7C003000
7C003000
7C003000
FC007000
F8006000
F8006000
F8006000
F800C000
F800C000
FC018000
7C038000
3E070000
1FFE0000
07F00000
ENDCHAR
STARTCHAR Uhungarumlaut
ENCODING 219
SWIDTH 775 0
DWIDTH 26 0
BBX 25 32 5 0
BITMAP
0003DE00
00073800
000E7000
001CC000
00318000
00000000
00000000
7FE07F80
FFE07F80
1F800E00
1F000C00
3F001C00
3E001800
3E001800
3E001800
3E001800
7E003800
7C003000
7C003000
7C003000
7C003000
FC007000
F8006000
F8006000
F8006000
F800C000
F800C000
FC018000
7C038000
3E070000
1FFE0000
07F00000
ENDCHAR
STARTCHAR Udieresis
ENCODING 220
SWIDTH 775 0
DWIDTH 26 0
BBX 25 30 5 0
BITMAP
0071E000
00F1E000
00F1C000
00000000
00000000
7FE07F80
FFE07F80
1F800E00
1F000C00
3F001C00
3E001800
3E001800
3E001800
3E001800
7E003800
7C003000
7C003000
7C003000
7C003000
FC007000
F8006000
F8006000
F8006000
F800C000
F800C000
FC018000
7C038000
3E070000
1FFE0000
07F00000
ENDCHAR
STARTCHAR Yacute
ENCODING 221
SWIDTH 669 0
DWIDTH 23 0
BBX 23 32 5 0
BITMAP
0007C0
000F00
001E00
003800
007000
000000
000000
FFC07E
FFC0FE
7E0038
3F0030
1F0060
1F00C0
1F8180
0F8380
0F8300
07C600
07CC00
07F800
03F800
03F000
03E000
03E000
03E000
03E000
07E000
07C000
07C000
07C000
0FC000
7FF800
7FF000
ENDCHAR
STARTCHAR Tcedilla
ENCODING 222
SWIDTH 716 0
DWIDTH 24 0
BBX 24 32 5 -7
BITMAP
7FFFFF
7FFFFF
703E06
E07C06
E07C06
007C00
007C00
007C00
00F800
00F800
00F800
00F800
01F800
01F000
01F000
01F000
01F000
03F000
03E000
03E000
03E000
07E000
07E000
3FFC00
3FF800
018000
03C000
00E000
00E000
00E000
07E000
07C000
ENDCHAR
STARTCHAR germandbls
ENCODING 223
SWIDTH 656 0
DWIDTH 22 0
BBX 21 34 2 -7
BITMAP
001F80
007FE0
00F1F0
01E0F0
03E0F0
03E0F0
03E0E0
07C1C0
07C180
07C300
07C600
07CE00
0F9E00
0F9F00
0F9F80
0F8FC0
0F87E0
1F03F0
1F01F0
1F00F8
1F0078
1F0078
3E3078
3E3070
3E70F0
3E7FE0
3E3F80
7C0000
7C0000
7C0000
7C0000
7C0000
F80000
F80000
ENDCHAR
STARTCHAR racute
ENCODING 224
SWIDTH 496 0
DWIDTH 17 0
BBX 18 25 3 0
BITMAP
0007C0
000F00
001E00
003800
007000
000000
000000
7F0780
7F0F80
1F3F00
1F7F00
1F7200
3EE000
3FC000
3F8000
3F0000
3E0000
7E0000
7C0000
7C0000
7C0000
7C0000
F80000
F80000
F80000
ENDCHAR
STARTCHAR aacute
ENCODING 225
SWIDTH 634 0
DWIDTH 22 0
BBX 20 25 2 0
BITMAP
0001F0
0003C0
000780
000E00
001C00
000000
000000
003FF0
01FFF0
0383E0
0703E0
0E03E0
1E03E0
3C03E0
3C07C0
7C07C0
7C0FC0
F81FC0
F837C0
F87780
F8EF80
FFCF80
FF8F80
7F0FE0
3C1FE0
ENDCHAR
STARTCHAR acircumflex
ENCODING 226
SWIDTH 634 0
DWIDTH 22 0
BBX 20 25 2 0
BITMAP
000F80
001F80
003FC0
0071C0
00E060
000000
000000
003FF0
01FFF0
0383E0
0703E0
0E03E0
1E03E0
3C03E0
3C07C0
7C07C0
7C0FC0
F81FC0
F837C0
F87780
F8EF80
FFCF80
FF8F80
7F0FE0
3C1FE0
ENDCHAR
STARTCHAR abreve
ENCODING 227
SWIDTH 634 0
DWIDTH 22 0
BBX 20 25 2 0
BITMAP
00C030
00E060
007FC0
007F80
001F00
000000
000000
003FF0
01FFF0
0383E0
0703E0
0E03E0
1E03E0
3C03E0
3C07C0
7C07C0
7C0FC0
F81FC0
F837C0
F87780
F8EF80
FFCF80
FF8F80
7F0FE0
3C1FE0
ENDCHAR
STARTCHAR adieresis
ENCODING 228
SWIDTH 634 0
DWIDTH 22 0
BBX 20 23 2 0
BITMAP
0071E0
00F1E0
00F1C0
000000
000000
003FF0
01FFF0
0383E0
0703E0
0E03E0
1E03E0
3C03E0
3C07C0
7C07C0
7C0FC0
F81FC0
F837C0
F87780
F8EF80
FFCF80
FF8F80
7F0FE0
3C1FE0
ENDCHAR
STARTCHAR lacute
ENCODING 229
SWIDTH 319 0
DWIDTH 11 0
BBX 15 32 3 0
BITMAP
003E
0078
00F0
01C0
0380
0000
3FC0
3FC0
0FC0
0F80
0F80
0F80
0F80
0F80
1F00
1F00
1F00
1F00
1F00
3E00
3E00
3E00
3E00
3E00
7C00
7C00
7C00
7C00
7C00
FC00
FF00
FF00
ENDCHAR
STARTCHAR cacute
ENCODING 230
SWIDTH 524 0
DWIDTH 18 0
BBX 19 25 3 0
BITMAP
0003E0
000780
000F00
001C00
003800
000000
000000
007F00
01FF80
07C780
0F0380
1E0380
3E0300
3C0000
7C0000
7C0000
F80000
F80000
F80000
F80000
F80000
FC0000
7E0600
3FFC00
0FE000
ENDCHAR
STARTCHAR ccedilla
ENCODING 231
SWIDTH 524 0
DWIDTH 18 0
BBX 17 25 3 -7
BITMAP
007F00
01FF80
07C780
0F0380
1E0380
3E0300
3C0000
7C0000
7C0000
F80000
F80000
F80000
F80000
F80000
FC0000
7E0600
3FFC00
0FE000
0C0000
1E0000
070000
070000
070000
3F0000
3E0000
ENDCHAR
STARTCHAR ccaron
ENCODING 232
SWIDTH 524 0
DWIDTH 18 0
BBX 19 25 3 0
BITMAP
00C0E0
0061C0
007780
003F00
003E00
000000
000000
007F00
01FF80
07C780
0F0380
1E0380
3E0300
3C0000
7C0000
7C0000
F80000
F80000
F80000
F80000
F80000
FC0000
7E0600
3FFC00
0FE000
ENDCHAR
STARTCHAR eacute
ENCODING 233
SWIDTH 548 0
DWIDTH 19 0
BBX 18 25 3 0
BITMAP
0007C0
000F00
001E00
003800
007000
000000
000000
007C00
01FF00
071F00
0E0F00
1E0F80
3C0F00
3C1F00
7C3E00
78FC00
FFF000
FFC000
F80000
F80000
F80000
FC0300
7E0F00
3FFE00
0FF000
ENDCHAR
STARTCHAR eogonek
ENCODING 234
SWIDTH 548 0
DWIDTH 19 0
BBX 17 23 3 -5
BITMAP
007C00
01FF00
071F00
0E0F00
1E0F80
3C0F00
3C1F00
7C3E00
78FC00
FFF000
FFC000
F80000
F80000
F80000
FC0300
7E0F00
3FFE00
0FF000
070000
0C0000
1C0000
1F8000
0F8000
ENDCHAR
STARTCHAR edieresis
ENCODING 235
SWIDTH 548 0
DWIDTH 19 0
BBX 17 23 3 0
BITMAP
01C780
03C780
03C700
000000
000000
007C00
01FF00
071F00
0E0F00
1E0F80
3C0F00
3C1F00
7C3E00
78FC00
FFF000
FFC000
F80000
F80000
F80000
FC0300
7E0F00
3FFE00
0FF000
ENDCHAR
STARTCHAR ecaron
ENCODING 236
SWIDTH 548 0
DWIDTH 19 0
BBX 19 25 3 0
BITMAP
00C0E0
0061C0
007780
003F00
003E00
000000
000000
007C00
01FF00
071F00
0E0F00
1E0F80
3C0F00
3C1F00
7C3E00
78FC00
FFF000
FFC000
F80000
F80000
F80000
FC0300
7E0F00
3FFE00
0FF000
ENDCHAR
STARTCHAR iacute
ENCODING 237
SWIDTH 319 0
DWIDTH 11 0
BBX 14 25 3 0
BITMAP
007C
00F0
01E0
0380
0700
0000
0000
7F80
7F80
1F00
1F00
1F00
1F00
1E00
3E00
3E00
3E00
3E00
3C00
7C00
7C00
7C00
7C00
FF00
FF00
ENDCHAR
STARTCHAR icircumflex
ENCODING 238
SWIDTH 319 0
DWIDTH 11 0
BBX 13 25 3 0
BITMAP
03E0
07E0
0FF0
1C70
3818
0000
0000
7F80
7F80
1F00
1F00
1F00
1F00
1E00
3E00
3E00
3E00
3E00
3C00
7C00
7C00
7C00
7C00
FF00
FF00
ENDCHAR
STARTCHAR dcaron
ENCODING 239
SWIDTH 662 0
DWIDTH 23 0
BBX 26 26 3 0
BITMAP
0007FBC0
0007FBC0
0000FBC0
0001F3C0
0001F3C0
0001F180
0001F180
0001F100
003FE300
01FFE600
0387E000
0703E000
0E03E000
1E03C000
3C07C000
3C07C000
7C0FC000
780FC000
F81F8000
F83F8000
F87F8000
F8EF8000
FFCF8000
FF8F8000
7F1FE000
3C1FE000
ENDCHAR
STARTCHAR dmacron
ENCODING 240
SWIDTH 634 0
DWIDTH 22 0
BBX 23 26 3 0
BITMAP
0007F8
0007F8
0000F8
0001F0
00FFFE
00FFFE
00FFFE
00FFFE
003FE0
01FFE0
0387E0
0703E0
0E03E0
1E03C0
3C07C0
3C07C0
7C0FC0
780FC0
F81F80
F83F80
F87F80
F8EF80
FFCF80
FF8F80
7F1FE0
3C1FE0
ENDCHAR
STARTCHAR nacute
ENCODING 241
SWIDTH 656 0
DWIDTH 22 0
BBX 20 25 3 0
BITMAP
0001F0
0003C0
000780
000E00
001C00
000000
000000
7F07C0
7F0FE0
1F1FE0
1F3FE0
1F73E0
3EE3E0
3FC3C0
3F87C0
3F07C0
3F07C0
7E07C0
7C0780
7C0F80
7C0F80
7C0F80
F80F80
F80FE0
F81FE0
ENDCHAR
STARTCHAR ncaron
ENCODING 242
SWIDTH 656 0
DWIDTH 22 0
BBX 19 25 3 0
BITMAP
00C0E0
0061C0
007780
003F00
003E00
000000
000000
7F07C0
7F0FE0
1F1FE0
1F3FE0
1F73E0
3EE3E0
3FC3C0
3F87C0
3F07C0
3F07C0
7E07C0
7C0780
7C0F80
7C0F80
7C0F80
F80F80
F80FE0
F81FE0
ENDCHAR
STARTCHAR oacute
ENCODING 243
SWIDTH 599 0
DWIDTH 20 0
BBX 19 25 3 0
BITMAP
0003E0
000780
000F00
001C00
003800
000000
000000
007E00
01FF80
0787C0
0F07C0
1E03E0
3E03E0
3C03E0
7C03E0
7C03E0
FC07C0
F807C0
F80780
F80F80
FC0F00
FC1E00
7E3C00
3FF000
0FC000
ENDCHAR
STARTCHAR ocircumflex
ENCODING 244
SWIDTH 599 0
DWIDTH 20 0
BBX 19 25 3 0
BITMAP
001F00
003F00
007F80
00E380
01C0C0
000000
000000
007E00
01FF80
0787C0
0F07C0
1E03E0
3E03E0
3C03E0
7C03E0
7C03E0
FC07C0
F807C0
F80780
F80F80
FC0F00
FC1E00
7E3C00
3FF000
0FC000
ENDCHAR
STARTCHAR ohungarumlaut
ENCODING 245
SWIDTH 599 0
DWIDTH 20 0
BBX 20 25 3 0
BITMAP
000630
000C60
0018C0
003180
006300
000000
000000
007E00
01FF80
0787C0
0F07C0
1E03E0
3E03E0
3C03E0
7C03E0
7C03E0
FC07C0
F807C0
F80780
F80F80
FC0F00
FC1E00
7E3C00
3FF000
0FC000
ENDCHAR
STARTCHAR odieresis
ENCODING 246
SWIDTH 599 0
DWIDTH 20 0
BBX 19 23 3 0
BITMAP
00E3C0
01E3C0
01E380
000000
000000
007E00
01FF80
0787C0
0F07C0
1E03E0
3E03E0
3C03E0
7C03E0
7C03E0
FC07C0
F807C0
F80780
F80F80
FC0F00
FC1E00
7E3C00
3FF000
0FC000
ENDCHAR
STARTCHAR divide
ENCODING 247
SWIDTH 636 0
DWIDTH 21 0
BBX 20 18 3 0
BITMAP
003C00
003800
007800
007800
000000
000000
000000
000000
FFFFF0
FFFFF0
000000
000000
000000
000000
01E000
01E000
01C000
03C000
ENDCHAR
STARTCHAR rcaron
ENCODING 248
SWIDTH 496 0
DWIDTH 17 0
BBX 18 25 3 0
BITMAP
0181C0
00C380
00EF00
007E00
007C00
000000
000000
7F0780
7F0F80
1F3F00
1F7F00
1F7200
3EE000
3FC000
3F8000
3F0000
3E0000
7E0000
7C0000
7C0000
7C0000
7C0000
F80000
F80000
F80000
ENDCHAR
STARTCHAR uring
ENCODING 249
SWIDTH 655 0
DWIDTH 22 0
BBX 19 25 4 0
BITMAP
007000
00D800
008800
00D800
007000
000000
000000
FF1FE0
FF1FE0
3E07E0
3E07C0
3E07C0
3E07C0
3C07C0
7C07C0
7C0F80
7C1F80
7C3F80
786F80
F8EF80
F9CF00
FF9F00
FF1F00
FE1FC0
781FC0
ENDCHAR
STARTCHAR uacute
ENCODING 250
SWIDTH 655 0
DWIDTH 22 0
BBX 19 25 4 0
BITMAP
0003E0
000780
000F00
001C00
003800
000000
000000
FF1FE0
FF1FE0
3E07E0
3E07C0
3E07C0
3E07C0
3C07C0
7C07C0
7C0F80
7C1F80
7C3F80
786F80
F8EF80
F9CF00
FF9F00
FF1F00
FE1FC0
781FC0
ENDCHAR
STARTCHAR uhungarumlaut
ENCODING 251
SWIDTH 655 0
DWIDTH 22 0
BBX 19 25 4 0
BITMAP
0018C0
003180
006300
00C600
018C00
000000
000000
FF1FE0
FF1FE0
3E07E0
3E07C0
3E07C0
3E07C0
3C07C0
7C07C0
7C0F80
7C1F80
7C3F80
786F80
F8EF80
F9CF00
FF9F00
FF1F00
FE1FC0
781FC0
ENDCHAR
STARTCHAR udieresis
ENCODING 252
SWIDTH 655 0
DWIDTH 22 0
BBX 19 23 4 0
BITMAP
00E3C0
01E3C0
01E380
000000
000000
FF1FE0
FF1FE0
3E07E0
3E07C0
3E07C0
3E07C0
3C07C0
7C07C0
7C0F80
7C1F80
7C3F80
786F80
F8EF80
F9CF00
FF9F00
FF1F00
FE1FC0
781FC0
ENDCHAR
STARTCHAR yacute
ENCODING 253
SWIDTH 586 0
DWIDTH 20 0
BBX 23 32 0 -7
BITMAP
00007C
0000F0
0001E0
000380
000700
000000
000000
1FC07E
1FC03E
07E01E
03E01E
03E01C
01F03C
01F038
01F070
01F0E0
00F0C0
00F9C0
00FB80
00FF00
00FE00
00FC00
007800
007000
007000
006000
00C000
038000
070000
0F0000
1E0000
FE0000
ENDCHAR
STARTCHAR tcedilla
ENCODING 254
SWIDTH 375 0
DWIDTH 13 0
BBX 12 30 3 -7
BITMAP
0380
0F00
1F00
1F00
1F00
FFF0
FFF0
1E00
3E00
3E00
3E00
3E00
7C00
7C00
7C00
7C00
7C00
F800
F800
F800
FC00
7F80
3F00
0C00
1E00
0700
0700
0700
3F00
3E00
ENDCHAR
STARTCHAR dotaccent
ENCODING 255
SWIDTH 327 0
DWIDTH 11 0
BBX 5 4 3 21
BITMAP
78
78
F0
F0
ENDCHAR
ENDFONT
